# xmcd CD database file
#
# Track frame offsets:
#	150
#	12890
#	28093
#	37673
#	54040
#	77467
#	91852
#	110572
#	123677
#	135170
#	145885
#	158342
#	169197
#	184911
#	205506
#	226226
#	244740
#	263679
#	275333
#	305997
#	321812
#	335359
#
# Disc length: 4657 seconds
#
# Revision: 0
# Processed by: cddbd v1.5.1PL2 Copyright (c) Steve Scherf et al.
# Submitted via: CDex 1.51
#
DISCID=16122f16
DTITLE=Various Artist - Country Songbirds Disc 2
DYEAR=1900
DGENRE=Country
TTITLE0=Patsy Cline - I fall to Pieces
TTITLE1=Heather Myles - Love Me A Little Longer
TTITLE2=Wanda Jackson - Funnel of Love
TTITLE3=Laura Cantrell - Not The Tremblin' Kind
TTITLE4=Lisa Miller - Little Stars
TTITLE5=Audrey Auld - Losing Faith
TTITLE6=Caitlin Cary - What Will You Do?
TTITLE7=Danni Leigh - He Used To Say That To Me
TTITLE8=Kelly Willis - Take It All Out On You
TTITLE9=Jessi Colter - It's Morning (And I Still Love You)
TTITLE10=Linda Ronstadt - I Can't Help It If I'm Still In Love With You
TTITLE11=Tanya Tucker - Would You Lay With Me (In A Field Of Stone)
TTITLE12=Janis Joplin - A Woman Left Lonely
TTITLE13=Lucinda Williams - Right In Time
TTITLE14=Kathleen Edwards - Six O'Clock News
TTITLE15=Julie Miller - Ride The Wind To Me
TTITLE16=Mindy Smith - Come To Jesus
TTITLE17=Nancy Griffith - Once In A Very Blue Moon
TTITLE18=Iris Dement - No Time To Cry
TTITLE19=Catherine Britt - 46 Miles From Alice
TTITLE20=Loretta Lynn - Coal Miner's Daughter
TTITLE21=Patsy Montana and The Prairie Ramblers - I Want To Be A Cowboy's Sweetheart
EXTD=
EXTT0=
EXTT1=
EXTT2=
EXTT3=
EXTT4=
EXTT5=
EXTT6=
EXTT7=
EXTT8=
EXTT9=
EXTT10=
EXTT11=
EXTT12=
EXTT13=
EXTT14=
EXTT15=
EXTT16=
EXTT17=
EXTT18=
EXTT19=
EXTT20=
EXTT21=
PLAYORDER=
